 <svg  version="1.0" xmlns="http://www.w3.org/2000/svg"  width="236.000000pt" height="219.000000pt" viewBox="0 0 236.000000 219.000000"  preserveAspectRatio="xMidYMid meet">  <g transform="translate(0.000000,219.000000) scale(0.100000,-0.100000)" fill="#f80573" stroke="none"> <path d="M871 1969 c-50 -10 -131 -46 -131 -60 0 -5 -7 -9 -15 -9 -23 0 -195 -175 -195 -199 0 -5 -4 -11 -8 -13 -17 -7 -73 -138 -93 -218 -35 -142 -16 -332 47 -465 20 -44 54 -131 54 -141 0 -2 -17 -6 -37 -10 -64 -12 -145 -43 -179 -69 -18 -14 -44 -49 -58 -79 l-26 -55 0 -280 c0 -267 1 -282 20 -301 19 -19 36 -20 920 -20 528 0 900 4 900 9 0 5 10 11 23 15 36 9 57 56 57 130 0 90 -17 84 -22 -8 -6 -128 99 -115 -966 -116 l-913 0 3 293 3 294 28 42 c39 58 98 93 200 116 48 11 87 23 87 26 0 4 -20 51 -46 105 -91 196 -111 362 -65 529 72 260 316 488 494 461 112 -17 292 -171 365 -313 56 -109 82 -212 82 -327 0 -135 -24 -216 -118 -408 -2 -5 28 -8 66 -8 48 0 73 4 82 14 6 8 34 22 62 32 70 23 162 15 224 -20 43 -24 55 -26 171 -26 l125 0 29 -30 30 -29 -3 -271 -3 -270 40 0 c35 1 37 2 20 12 -11 6 -23 16 -27 22 -4 6 -8 125 -8 264 l0 252 -40 40 -39 39 -123 -1 c-118 -2 -125 -1 -165 25 -24 15 -43 29 -43 30 0 2 16 4 36 5 20 2 47 10 60 19 15 9 24 11 24 4 0 -6 3 -10 8 -9 4 0 15 -2 25 -7 11 -4 35 -2 59 5 32 11 41 11 48 1 5 -9 19 -11 46 -7 50 8 62 8 102 0 24 -5 38 -2 52 11 18 16 20 31 20 134 -1 155 -11 167 -116 136 -12 -4 -25 -2 -28 4 -9 14 -76 14 -76 0 0 -7 -11 -9 -27 -6 -87 19 -90 19 -106 2 -10 -9 -17 -12 -17 -7 0 13 -83 31 -146 31 -39 0 -56 -5 -70 -20 -16 -17 -19 -18 -40 -4 -24 16 -89 21 -80 7 3 -5 -1 -9 -9 -9 -11 0 -15 12 -15 44 l0 44 36 -7 c22 -4 45 -2 60 6 20 11 28 11 48 0 15 -7 36 -10 53 -6 54 13 73 14 73 5 0 -15 57 -10 70 6 15 18 37 20 42 3 3 -9 34 -14 94 -16 79 -3 91 -1 111 17 21 20 23 20 35 3 7 -10 28 -19 48 -20 53 -3 64 21 67 152 2 108 2 109 -27 138 -32 31 -63 31 -86 0 -9 -13 -14 -13 -37 3 -21 14 -44 16 -113 13 -58 -2 -89 -7 -92 -16 -2 -6 -9 -12 -15 -12 -13 1 -62 39 -56 43 42 30 62 38 72 28 14 -14 52 -14 76 1 15 9 26 8 52 -5 18 -8 36 -15 39 -13 3 1 18 8 33 16 25 12 31 12 58 -4 30 -18 32 -18 58 1 25 20 26 24 29 138 2 99 0 121 -14 136 -20 22 -55 25 -84 7 -16 -10 -24 -10 -40 0 -25 15 -72 16 -88 0 -9 -9 -18 -9 -37 0 -32 15 -72 15 -80 2 -3 -5 -15 -10 -26 -10 -10 0 -19 5 -19 10 0 18 -172 12 -198 -6 -21 -15 -25 -15 -41 0 -24 21 -64 20 -84 -2 -14 -15 -17 -41 -17 -134 0 -99 3 -117 18 -131 24 -22 60 -22 85 1 15 13 21 14 25 4 7 -21 53 -34 117 -33 l60 1 -35 -21 c-26 -16 -38 -19 -50 -10 -31 23 -42 23 -72 1 -17 -13 -33 -18 -37 -13 -15 24 -48 32 -74 20 -34 -16 -45 -42 -42 -102 1 -28 -1 -61 -5 -75 -7 -20 -8 -21 -9 -5 -3 50 -111 275 -133 275 -4 0 -8 4 -8 10 0 9 -96 110 -105 110 -2 0 -16 11 -31 25 -35 33 -139 82 -184 87 -19 3 -55 1 -79 -3z m649 -139 l0 -120 -30 0 -30 0 0 120 0 120 30 0 30 0 0 -120z m247 -2 l-2 -123 -92 -3 -93 -3 0 126 0 125 94 0 95 0 -2 -122z m113 2 l0 -120 -30 0 -30 0 0 120 0 120 30 0 30 0 0 -120z m130 0 l0 -120 -35 0 -35 0 0 120 0 120 35 0 35 0 0 -120z m120 0 l0 -120 -30 0 -30 0 0 120 0 120 30 0 30 0 0 -120z m-610 -335 l0 -125 -30 0 -30 0 0 125 0 125 30 0 30 0 0 -125z m120 0 l0 -125 -30 0 -30 0 0 125 0 125 30 0 30 0 0 -125z m120 0 l0 -125 -30 0 -30 0 0 125 0 125 30 0 30 0 0 -125z m250 0 l0 -125 -95 0 -95 0 0 125 0 125 95 0 95 0 0 -125z m120 0 l0 -125 -30 0 -30 0 0 125 0 125 30 0 30 0 0 -125z m-365 -366 l0 -119 -92 0 -93 0 0 123 0 122 92 -3 93 -3 0 -120z m-245 1 l0 -120 -30 0 -30 0 0 120 0 120 30 0 30 0 0 -120z m360 0 l0 -120 -30 0 -30 0 0 120 0 120 30 0 30 0 0 -120z m130 0 l0 -120 -35 0 -35 0 0 120 0 120 35 0 35 0 0 -120z m120 0 l0 -120 -30 0 -30 0 0 120 0 120 30 0 30 0 0 -120z m-695 -122 c4 -10 11 -15 16 -12 5 3 9 -2 9 -11 0 -11 5 -15 15 -11 8 3 15 2 15 -3 0 -10 -97 -56 -119 -56 -31 -1 -39 13 -27 50 6 19 14 35 18 35 5 0 8 9 8 19 0 11 5 23 10 26 6 3 10 12 10 20 0 8 5 26 12 42 11 27 12 27 19 -27 4 -30 10 -63 14 -72z m133 -29 c-7 -5 -22 -9 -32 -9 -18 0 -18 1 -1 20 14 16 21 17 32 8 11 -9 11 -13 1 -19z"/> <path d="M1640 1830 c0 -60 0 -60 30 -60 30 0 30 0 30 60 0 60 0 60 -30 60 -30 0 -30 0 -30 -60z"/> <path d="M1889 1556 c0 -3 -1 -32 -2 -63 -1 -57 0 -58 27 -58 27 0 28 2 29 58 1 38 -2 57 -10 57 -6 0 -18 3 -27 6 -9 3 -16 3 -17 0z"/> <path d="M1640 1130 c0 -60 0 -60 30 -60 30 0 30 0 30 60 0 60 0 60 -30 60 -30 0 -30 0 -30 -60z"/> <path d="M825 1859 c-46 -25 -126 -85 -121 -90 3 -2 45 -3 95 -1 l91 3 0 55 c0 62 -6 65 -65 33z m35 -33 c0 -3 -7 -11 -15 -19 -15 -15 -55 -12 -55 4 0 5 7 6 15 3 8 -4 15 -1 15 5 0 6 9 11 20 11 11 0 20 -2 20 -4z"/> <path d="M950 1715 l0 -165 43 0 c68 -1 180 -32 266 -74 30 -14 57 -26 59 -26 10 0 -12 61 -50 139 -31 65 -58 102 -113 157 -66 66 -163 134 -192 134 -10 0 -13 -40 -13 -165z m94 90 c84 -56 210 -207 219 -263 1 -9 7 -23 11 -31 7 -11 5 -13 -10 -7 -69 29 -187 65 -231 71 -35 4 -53 12 -53 21 -1 8 -1 59 -1 114 0 132 0 130 7 130 3 0 29 -16 58 -35z"/> <path d="M621 1684 c-25 -32 -27 -48 -5 -40 9 3 74 6 145 6 l129 0 0 29 0 30 -124 0 c-123 1 -125 1 -145 -25z"/> <path d="M710 1580 l-155 -5 -22 -60 c-12 -33 -22 -63 -22 -66 -1 -4 29 8 67 27 83 41 201 74 264 74 41 0 48 3 48 20 0 11 -6 19 -12 18 -7 -1 -83 -5 -168 -8z m-66 -43 c-27 -15 -84 -26 -84 -16 0 5 5 9 11 9 5 0 7 6 3 13 -4 6 -4 9 0 6 4 -4 19 -4 34 0 36 10 61 2 36 -12z"/> <path d="M748 1473 c-125 -29 -86 -38 172 -38 165 0 240 3 240 11 0 35 -296 55 -412 27z"/> <path d="M1220 1288 c0 -163 -7 -197 -55 -268 -27 -40 -35 -62 -35 -96 l0 -44 43 6 c23 4 43 7 43 8 1 1 23 50 48 110 52 119 76 211 76 297 0 61 0 61 -72 103 l-48 27 0 -143z m60 71 c0 -5 4 -8 9 -5 26 16 27 -104 2 -199 -20 -79 -90 -228 -108 -233 -7 -2 -15 8 -19 22 -4 18 1 34 19 58 52 69 65 130 67 336 0 22 5 32 15 32 8 0 15 -5 15 -11z"/> <path d="M548 1392 l-48 -27 0 -70 c0 -96 21 -174 81 -310 52 -116 53 -117 82 -111 16 3 33 6 38 6 5 0 9 20 9 44 0 33 -7 52 -29 80 -51 64 -65 124 -66 278 0 86 -4 138 -10 137 -5 0 -31 -12 -57 -27z m42 -144 c0 -98 17 -191 39 -208 3 -3 17 -24 29 -48 25 -45 24 -96 -1 -86 -12 4 -24 27 -85 164 -24 53 -51 180 -50 230 1 24 9 42 27 57 35 31 41 17 41 -109z"/> <path d="M680 1341 c0 -32 1 -33 18 -18 14 13 38 17 94 17 75 0 77 0 90 -30 18 -42 59 -42 75 0 l12 31 83 -3 c77 -3 83 -5 95 -28 12 -24 13 -23 13 20 l0 45 -240 0 -240 0 0 -34z m252 -13 c-9 -9 -15 -9 -24 0 -9 9 -7 12 12 12 19 0 21 -3 12 -12z"/> <path d="M740 1249 c0 -29 1 -30 43 -27 38 3 42 6 45 31 3 26 2 27 -42 27 -45 0 -46 -1 -46 -31z"/> <path d="M1010 1252 c0 -27 2 -28 43 -26 37 1 42 5 45 28 3 25 1 26 -42 26 -44 0 -46 -1 -46 -28z"/> <path d="M890 1210 c0 -5 -9 -19 -20 -30 -16 -16 -33 -20 -85 -20 -52 0 -69 4 -85 20 -20 20 -20 20 -20 -9 0 -67 61 -155 134 -194 56 -29 155 -30 211 0 74 39 121 106 132 190 l6 48 -22 -27 c-20 -25 -29 -28 -79 -28 -77 0 -99 8 -106 36 -5 19 -13 24 -36 24 -17 0 -30 -4 -30 -10z m50 -39 c0 -16 56 -32 116 -34 53 -2 59 -4 56 -22 -2 -11 -13 -31 -25 -44 -12 -13 -15 -20 -7 -16 13 8 13 6 1 -8 -7 -9 -17 -14 -22 -11 -5 3 -9 0 -9 -6 0 -18 -81 -50 -125 -49 -22 0 -57 6 -77 12 -40 13 -117 79 -119 103 -1 8 -2 19 -3 26 -1 8 18 13 54 14 56 1 110 17 110 32 0 4 11 9 25 10 14 1 25 -2 25 -7z"/> <path d="M768 898 c3 -18 12 -40 21 -48 21 -20 95 -50 124 -50 74 0 157 52 157 99 l0 28 -52 -18 c-69 -24 -136 -24 -200 1 -29 11 -53 20 -54 20 0 0 2 -15 4 -32z m234 -27 c-8 -4 -13 -12 -13 -17 1 -15 -51 -25 -96 -19 -24 4 -43 11 -43 16 0 6 -4 7 -10 4 -5 -3 -10 -2 -10 3 0 6 27 8 64 5 37 -3 71 -1 82 5 22 13 45 16 26 3z"/> <path d="M1493 865 c-118 -55 -156 -199 -79 -304 15 -20 26 -52 30 -91 6 -51 10 -60 26 -60 18 0 20 7 20 60 l0 60 36 0 36 0 -7 -60 -7 -60 32 0 32 0 -4 60 -4 60 37 0 37 0 -4 -60 c-4 -55 -3 -60 15 -60 15 0 22 9 26 38 12 69 26 112 35 112 6 0 10 6 10 14 0 8 5 16 12 18 20 7 22 114 4 163 -30 78 -115 135 -201 135 -16 0 -54 -11 -82 -25z m153 -15 c26 -10 85 -54 85 -64 0 -3 7 -25 15 -48 23 -63 20 -100 -12 -157 -21 -37 -33 -49 -44 -45 -34 15 -63 16 -84 4 -18 -9 -29 -9 -44 -1 -25 14 -65 14 -78 1 -12 -12 -23 -4 -54 40 -21 30 -25 46 -24 104 0 44 5 71 12 74 7 2 12 9 12 16 0 16 36 49 75 69 35 19 102 22 141 7z"/> <path d="M1440 751 c-26 -50 -1 -101 49 -101 54 0 82 68 43 103 -26 24 -79 22 -92 -2z m80 -41 c0 -27 -3 -30 -30 -30 -27 0 -30 3 -30 30 0 27 3 30 30 30 27 0 30 -3 30 -30z"/> <path d="M1627 752 c-22 -24 -21 -65 1 -85 40 -36 102 -9 102 45 0 51 -69 78 -103 40z m73 -42 c0 -27 -3 -30 -30 -30 -27 0 -30 3 -30 30 0 27 3 30 30 30 27 0 30 -3 30 -30z"/> <path d="M1167 823 c-4 -3 -7 -125 -7 -270 l0 -263 423 0 422 0 -5 267 -5 268 -93 3 c-52 1 -92 -1 -90 -5 34 -67 41 -95 41 -155 0 -58 -4 -73 -31 -115 -31 -48 -71 -197 -58 -211 12 -12 25 14 35 72 6 33 27 91 46 130 29 58 35 83 35 133 0 34 -5 74 -10 89 -6 15 -9 28 -8 30 2 1 23 4 46 7 72 7 72 7 70 -248 -2 -123 -7 -227 -11 -232 -5 -4 -49 -9 -98 -10 -79 -3 -91 0 -106 17 -16 19 -30 20 -189 20 l-171 0 -13 78 c-7 42 -19 84 -26 92 -7 9 -22 36 -33 60 -31 68 -27 136 14 233 6 15 -1 17 -82 17 -49 0 -93 -3 -96 -7z m140 -27 c1 -1 -6 -27 -14 -59 -19 -66 -8 -138 29 -197 13 -19 32 -71 43 -115 12 -44 23 -86 26 -94 3 -12 -14 -15 -88 -17 -96 -2 -109 3 -113 41 -1 11 -2 115 -1 232 1 211 1 212 24 215 18 3 87 -1 94 -6z"/> <path d="M630 800 c-36 -10 -101 -27 -144 -39 -92 -24 -120 -40 -146 -84 -18 -30 -20 -52 -20 -287 l0 -255 85 0 85 0 0 228 0 227 35 0 35 0 0 -227 0 -228 162 2 163 1 0 304 0 303 -36 6 c-20 3 -56 20 -80 37 -49 36 -51 36 -139 12z m124 -34 c17 -13 42 -27 56 -31 51 -15 50 -11 50 -289 0 -190 -3 -265 -12 -274 -8 -8 -52 -12 -130 -12 -118 0 -119 0 -128 26 -6 14 -10 106 -10 205 0 105 -4 188 -10 200 -12 22 -68 27 -88 7 -9 -9 -12 -69 -12 -209 0 -223 -2 -229 -70 -229 -29 0 -42 5 -50 19 -6 12 -10 103 -10 225 0 283 6 296 151 330 35 8 88 23 116 33 77 26 110 26 147 -1z"/> <path d="M1058 783 c-21 -14 -52 -28 -70 -32 l-33 -7 -3 -304 -2 -305 45 -1 45 -1 0 78 0 79 30 0 30 0 0 260 c0 143 -1 260 -2 259 -2 0 -20 -12 -40 -26z m14 -205 c2 -222 0 -251 -17 -260 -35 -20 -45 -40 -45 -94 0 -54 -12 -69 -28 -36 -5 9 -7 107 -6 217 2 110 3 226 4 257 0 52 2 57 28 66 64 24 62 28 64 -150z"/> <path d="M1100 190 c0 -20 4 -40 9 -45 6 -6 193 -9 480 -7 l471 2 0 43 0 42 -480 0 -480 0 0 -35z m920 0 c47 -29 -55 -34 -517 -25 -200 4 -363 11 -363 16 0 14 857 23 880 9z"/> </g> </svg> 