 <svg  version="1.0" xmlns="http://www.w3.org/2000/svg"  width="60.000000pt" height="60.000000pt" viewBox="0 0 60.000000 60.000000"  preserveAspectRatio="xMidYMid meet">  <g transform="translate(0.000000,60.000000) scale(0.100000,-0.100000)" fill="#f90d71" stroke="none"> <path d="M12 588 c-14 -14 -17 -464 -4 -485 5 -8 45 -13 117 -15 l110 -3 -40 -20 c-27 -13 -40 -27 -40 -40 0 -19 7 -20 145 -20 138 0 145 1 145 20 0 13 -13 27 -40 40 l-40 20 110 3 c72 2 112 7 117 15 13 21 10 471 -4 485 -17 17 -559 17 -576 0z m568 -218 l0 -210 -280 0 -280 0 0 210 0 210 280 0 280 0 0 -210z m0 -245 c0 -13 -38 -15 -280 -15 -242 0 -280 2 -280 15 0 13 38 15 280 15 242 0 280 -2 280 -15z m-220 -50 c11 -13 3 -15 -60 -15 -63 0 -71 2 -60 15 17 20 103 20 120 0z m65 -45 c4 -6 -40 -10 -125 -10 -85 0 -129 4 -125 10 8 13 242 13 250 0z"/> <path d="M45 547 c-3 -7 -4 -91 -3 -187 l3 -175 255 0 255 0 0 185 0 185 -253 3 c-200 2 -254 0 -257 -11z m495 -177 l0 -170 -240 0 -240 0 0 170 0 170 240 0 240 0 0 -170z"/> <path d="M94 506 c-3 -8 -4 -25 -2 -38 2 -17 9 -23 28 -23 22 0 25 4 25 35 0 29 -4 36 -23 38 -13 2 -24 -3 -28 -12z"/> <path d="M240 495 c0 -14 5 -25 12 -25 9 0 9 -3 0 -12 -9 -9 -15 -8 -26 8 -8 10 -17 16 -21 12 -10 -10 14 -48 30 -48 8 0 15 -4 15 -10 0 -5 -7 -10 -15 -10 -16 0 -40 -38 -30 -48 4 -4 13 2 21 12 11 16 17 17 26 8 9 -9 9 -12 0 -12 -7 0 -12 -11 -12 -25 0 -14 5 -25 10 -25 6 0 10 8 10 18 0 14 8 17 40 17 32 0 40 -3 40 -17 0 -10 5 -18 10 -18 6 0 10 11 10 25 0 14 -4 25 -10 25 -5 0 -10 5 -10 10 0 16 22 12 36 -7 7 -10 15 -15 19 -11 10 10 -14 48 -30 48 -8 0 -15 5 -15 10 0 6 7 10 15 10 16 0 40 38 30 48 -4 4 -13 -2 -21 -12 -11 -16 -17 -17 -26 -8 -9 9 -9 12 0 12 7 0 12 11 12 25 0 14 -4 25 -10 25 -5 0 -10 -8 -10 -18 0 -14 -8 -17 -40 -17 -32 0 -40 3 -40 17 0 10 -4 18 -10 18 -5 0 -10 -11 -10 -25z m85 -75 c0 -41 -2 -45 -25 -45 -21 0 -26 5 -28 33 -5 47 4 64 30 60 20 -3 23 -9 23 -48z"/> <path d="M454 506 c-3 -8 -4 -25 -2 -38 2 -17 9 -23 28 -23 22 0 25 4 25 35 0 29 -4 36 -23 38 -13 2 -24 -3 -28 -12z"/> <path d="M94 396 c-3 -8 -4 -25 -2 -38 2 -17 9 -23 28 -23 22 0 25 4 25 35 0 29 -4 36 -23 38 -13 2 -24 -3 -28 -12z"/> <path d="M454 396 c-3 -8 -4 -25 -2 -38 2 -17 9 -23 28 -23 22 0 25 4 25 35 0 29 -4 36 -23 38 -13 2 -24 -3 -28 -12z"/> <path d="M94 286 c-11 -29 1 -61 23 -64 17 -3 24 3 29 22 3 14 4 33 0 41 -7 19 -45 20 -52 1z"/> <path d="M170 260 c0 -22 5 -40 10 -40 6 0 10 18 10 40 0 22 -4 40 -10 40 -5 0 -10 -18 -10 -40z"/> <path d="M214 286 c-3 -8 -4 -25 -2 -38 2 -17 9 -23 28 -23 22 0 25 4 25 35 0 29 -4 36 -23 38 -13 2 -24 -3 -28 -12z"/> <path d="M290 260 c0 -22 5 -40 10 -40 6 0 10 18 10 40 0 22 -4 40 -10 40 -5 0 -10 -18 -10 -40z"/> <path d="M334 286 c-3 -8 -4 -25 -2 -38 2 -17 9 -23 28 -23 22 0 25 4 25 35 0 29 -4 36 -23 38 -13 2 -24 -3 -28 -12z"/> <path d="M410 260 c0 -22 5 -40 10 -40 6 0 10 18 10 40 0 22 -4 40 -10 40 -5 0 -10 -18 -10 -40z"/> <path d="M454 286 c-3 -8 -4 -25 -2 -38 2 -17 9 -23 28 -23 22 0 25 4 25 35 0 29 -4 36 -23 38 -13 2 -24 -3 -28 -12z"/> </g> </svg> 