<svg xmlns="http://www.w3.org/2000/svg" viewBox="0 0 24 24" fill="#24292e" width="24" height="24">
  <path d="M12 0a12 12 0 0 0-12 12a12 12 0 0 0 7.75 11.25c.6.11.82-.25.82-.57c0-.28-.01-1-.01-1.95c-3.17.69-3.84-1.53-3.84-1.53c-.52-1.34-1.26-1.7-1.26-1.7c-1.03-.7.08-.68.08-.68c1.14.08 1.74 1.17 1.74 1.17c1.01 1.73 2.65 1.23 3.3.93c.1-.73.4-1.23.73-1.52c-2.56-.29-5.26-1.28-5.26-5.7c0-1.26.44-2.29 1.17-3.1c-.12-.29-.51-1.55.1-3.23c0 0 1.02-.33 3.34 1.25c.97-.27 2-.41 3.03-.42c1.02 0 2.05.15 3.03.42c2.32-1.58 3.34-1.25 3.34-1.25c.61 1.68.23 2.94.12 3.23c.73.81 1.16 1.84 1.16 3.1c0 4.42-2.7 5.41-5.28 5.7c.42.36.79 1.07.79 2.16c0 1.56-.01 2.81-.01 3.19c0 .32.22.68.83.56A12 12 0 0 0 24 12a12 12 0 0 0-12-12" />
</svg>
